/* XPM */
static char *d8c6754337e54ddab571aad8fd4ad502Dj40ESQELHeZPlN8[] = {
/* columns rows colors chars-per-pixel */
"64 64 2 1 ",
"  c #B97A57",
". c #DBA88C",
/* pixels */
"                                                                ",
"                                                                ",
"  ............................................................  ",
"  ............................................................  ",
"  ............................................................  ",
"  ............................................................  ",
"  ....                                          ..............  ",
"  ....                                           .............  ",
"  ....                                            ............  ",
"  ....                                             ...........  ",
"  ....                                              ..........  ",
"  ....                                               .........  ",
"  ....                                                ........  ",
"  ....                                                 .......  ",
"  ....                                                  ......  ",
"  ....                                                   .....  ",
"  ....          .......................                   ....  ",
"  ....          ........................                  ....  ",
"  ....          .........................                 ....  ",
"  ....          ..........................                ....  ",
"  ....          ...........................               ....  ",
"  ....          ............................              ....  ",
"  ....          .............................             ....  ",
"  ....          ..............................            ....  ",
"  ....          ...............................           ....  ",
"  ....          ................................          ....  ",
"  ....          ................................          ....  ",
"  ....          ................................          ....  ",
"  ....          ................................          ....  ",
"  ....          ................................          ....  ",
"  ....          ................................          ....  ",
"  ....          ................................          ....  ",
"  ....          ................................          ....  ",
"  ....          ................................          ....  ",
"  ....          ................................          ....  ",
"  ....          ................................          ....  ",
"  ....          ................................          ....  ",
"  ....          ................................          ....  ",
"  ....          ................................          ....  ",
"  ....          ...............................           ....  ",
"  ....          ..............................            ....  ",
"  ....          .............................             ....  ",
"  ....          ............................              ....  ",
"  ....          ...........................               ....  ",
"  ....          ..........................                ....  ",
"  ....          .........................                 ....  ",
"  ....          ........................                  ....  ",
"  ....          .......................                   ....  ",
"  ....                                                   .....  ",
"  ....                                                  ......  ",
"  ....                                                 .......  ",
"  ....                                                ........  ",
"  ....                                               .........  ",
"  ....                                              ..........  ",
"  ....                                             ...........  ",
"  ....                                            ............  ",
"  ....                                           .............  ",
"  ....                                          ..............  ",
"  ............................................................  ",
"  ............................................................  ",
"  ............................................................  ",
"  ............................................................  ",
"                                                                ",
"                                                                "
};